<svg xmlns="http://www.w3.org/2000/svg" viewBox="0 0 512 512" fill="#1e40af">
  <path d="M400 32H112C67.8 32 32 67.8 32 112v288c0 44.2 35.8 80 80 80h16v24c0 13.3 10.7 24 24 24h32c13.3 0 24-10.7 24-24v-24h96v24c0 13.3 10.7 24 24 24h32c13.3 0 24-10.7 24-24v-24h16c44.2 0 80-35.8 80-80V112c0-44.2-35.8-80-80-80zM144 416c-17.7 0-32-14.3-32-32s14.3-32 32-32 32 14.3 32 32-14.3 32-32 32zm224 0c-17.7 0-32-14.3-32-32s14.3-32 32-32 32 14.3 32 32-14.3 32-32 32zm32-144c0 8.8-7.2 16-16 16H128c-8.8 0-16-7.2-16-16V144c0-8.8 7.2-16 16-16h256c8.8 0 16 7.2 16 16v128z"/>
</svg>
