<svg xmlns="http://www.w3.org/2000/svg" viewBox="0 0 24 24" fill="#2563eb">
  <path d="M17 20H7V21C7 21.55 6.55 22 6 22H5C4.45 22 4 21.55 4 21V20H3V12H2V8H3V5C3 3.34 4.34 2 6 2H18C19.66 2 21 3.34 21 5V8H22V12H21V20H20V21C20 21.55 19.55 22 19 22H18C17.45 22 17 21.55 17 21V20ZM5 5V12H19V5C19 4.45 18.55 4 18 4H6C5.45 4 5 4.45 5 5ZM5 14V17H19V14H5ZM7.5 15.5C8.05 15.5 8.5 15.95 8.5 16.5C8.5 17.05 8.05 17.5 7.5 17.5C6.95 17.5 6.5 17.05 6.5 16.5C6.5 15.95 6.95 15.5 7.5 15.5ZM16.5 15.5C17.05 15.5 17.5 15.95 17.5 16.5C17.5 17.05 17.05 17.5 16.5 17.5C15.95 17.5 15.5 17.05 15.5 16.5C15.5 15.95 15.95 15.5 16.5 15.5Z"/>
</svg>
